<svg width="262" height="262" viewBox="0 0 262 262" fill="none" xmlns="http://www.w3.org/2000/svg">
  <path fill-rule="evenodd" clip-rule="evenodd" d="M17.6034 64.1875C37.3688 29.9531 70.231 7.9936 106.206 0.982221V0.983602C125.605 -1.87548 151.442 0.643671 167.847 20.0817C188.686 44.7744 179.501 74.2759 213.504 82.9072C255.632 93.5998 263.636 126.535 261.472 145.583C261.477 145.577 261.515 145.527 261.586 145.439C259.541 162.555 254.074 179.549 244.909 195.422C208.67 258.19 128.408 279.696 65.6397 243.457C2.87178 207.218 -18.6356 126.956 17.6034 64.1875ZM81.2796 79.8743C53.6797 107.475 53.6798 152.223 81.2796 179.824C108.88 207.424 153.629 207.424 181.23 179.824C208.83 152.224 208.83 107.474 181.23 79.8736C153.629 52.2737 108.88 52.274 81.2796 79.8743Z" fill="white"/>
  <path d="M225.731 43.7503C231.304 49.3229 231.304 58.3578 225.731 63.9304C220.159 69.503 211.124 69.503 205.551 63.9304C199.978 58.3578 199.978 49.3229 205.551 43.7503C211.124 38.1777 220.159 38.1777 225.731 43.7503Z" fill="white"/>
</svg>
