<svg width="307" height="53" viewBox="0 0 307 53" fill="none" xmlns="http://www.w3.org/2000/svg">
<path d="M99.7822 8.04688H84.4922V8.04883H84.4912C74.3805 8.04898 66.1836 16.2457 66.1836 26.3564C66.1837 36.4671 74.3806 44.6639 84.4912 44.6641L84.4922 44.6631V44.6621H99.7822V52.709H84.4922V52.71L84.4912 52.7109L83.8105 52.7021C69.7963 52.3467 58.5009 41.0513 58.1455 27.0371L58.1367 26.3564C58.1367 11.8014 69.9362 0.00210697 84.4912 0.00195312H84.4922V0H99.7822V8.04688ZM146.856 8.04688H131.57V8.04883H131.569C121.459 8.04892 113.262 16.2457 113.262 26.3564C113.262 36.4662 121.457 44.6614 131.566 44.6631V44.6621H146.856V52.709H131.57V52.71L131.569 52.7109L130.889 52.7021C116.874 52.3468 105.579 41.0514 105.224 27.0371L105.215 26.3564C105.215 11.8023 117.013 0.00362589 131.566 0.00195312V0H146.856V8.04688ZM262.416 9.27637C266.896 2.53085 272.52 -1.13311 278.095 0.316406C283.634 1.75664 286.34 7.52187 286.34 13.0566V52.6924H278.293V13.0566C278.293 9.84288 276.844 8.68085 276.157 8.50195C275.506 8.33265 272.83 8.35806 269.021 14.0938C261.442 25.5068 250.271 43.329 244.453 52.7109H234.781C240.015 44.2375 254.086 21.8197 262.416 9.27637ZM179.929 9.27539C184.408 2.52994 190.032 -1.13313 195.607 0.316406C201.147 1.75681 203.853 7.52187 203.853 13.0566V52.6914H195.806V13.0566C195.806 9.84281 194.357 8.67998 193.67 8.50098C193.019 8.33167 190.343 8.35729 186.534 14.0928C178.955 25.506 167.783 43.3281 161.965 52.71H152.293C157.527 44.2367 171.599 21.8188 179.929 9.27539ZM26.3545 0C40.9097 9.27734e-06 52.709 11.7993 52.709 26.3545C52.709 40.9097 40.9097 52.709 26.3545 52.709C11.7993 52.709 9.27791e-06 40.9097 0 26.3545C0 11.7993 11.7993 0 26.3545 0ZM306.598 52.709H298.551V0H306.598V52.709ZM26.3545 8.04688C16.2436 8.04688 8.04688 16.2436 8.04688 26.3545C8.04688 36.4653 16.2437 44.6621 26.3545 44.6621C36.4653 44.6621 44.6621 36.4653 44.6621 26.3545C44.6621 16.2437 36.4653 8.04688 26.3545 8.04688Z" fill="white"/>
</svg>
